<svg width="200" height="172" viewBox="0 0 200 172" fill="none" xmlns="http://www.w3.org/2000/svg">
<path d="M45.188 153.411V160.942C45.188 166.521 49.93 171.263 55.509 171.263H69.735C75.314 171.263 80.056 166.521 80.056 160.942V155.642H103.208V160.942C103.208 166.521 107.95 171.263 113.528 171.263H127.755C133.333 171.263 138.075 166.521 138.075 160.942V153.411C158.437 147.554 174.338 131.932 180.473 111.57H188.563C194.979 111.57 200 106.549 200 100.133V86.743C200 80.3279 194.979 75.307 188.563 75.307H180.473C176.289 61.081 166.805 49.0859 154.533 40.9969C156.764 25.0979 159.832 7.52397 159.832 7.24597C160.391 4.73497 158.995 2.50397 157.043 1.38797C154.812 0.271967 152.301 0.550965 150.628 2.50396L121.897 31.235C121.619 31.235 121.06 31.235 120.782 31.235H62.204C27.894 31.235 0 59.129 0 93.438C0 121.333 18.689 145.88 45.188 153.411ZM62.203 42.115H120.781C121.618 42.115 122.176 42.115 122.733 42.115H123.57C125.244 42.115 126.638 41.557 127.755 40.442L145.327 22.589C144.212 29.005 143.097 36.257 142.26 42.952C141.981 45.183 143.097 47.415 145.049 48.531C157.601 55.505 166.806 67.778 170.153 82.004C170.711 84.514 172.942 86.4669 175.732 86.4669H188.005C188.283 86.4669 188.283 86.467 188.283 86.745V100.135C188.283 100.413 188.283 100.413 188.005 100.413H175.732C173.221 100.413 170.99 102.087 170.153 104.877C165.69 124.402 150.348 139.744 130.823 143.649C128.312 144.207 126.359 146.438 126.359 149.228V160.385H113.807V150.065C113.807 146.996 111.296 144.486 108.228 144.486H74.476C71.408 144.486 68.897 146.996 68.897 150.065V160.106H56.345V148.949C56.345 146.438 54.392 143.928 51.882 143.37C28.172 138.628 11.157 117.429 11.157 93.1609C11.157 65.2659 34.03 42.115 62.203 42.115ZM86.75 60.246H113.249C116.318 60.246 118.828 57.735 118.828 54.667C118.828 51.599 116.318 49.0879 113.249 49.0879H86.75C83.682 49.0879 81.171 51.598 81.171 54.667C81.171 57.736 83.402 60.246 86.75 60.246Z" fill="url(#paint0_linear)"/>
<defs>
<linearGradient id="paint0_linear" x1="33.194" y1="153.133" x2="171.143" y2="15.1841" gradientUnits="userSpaceOnUse">
<stop stop-color="#E9E9E9"/>
<stop offset="1" stop-color="#03A9F4"/>
</linearGradient>
</defs>
</svg>
