<svg width="200" height="200" viewBox="0 0 200 200" fill="none" xmlns="http://www.w3.org/2000/svg">
<path d="M100 0C44.771 0 0 44.771 0 100C0 155.229 44.771 200 100 200C155.229 200 200 155.229 200 100C200 44.771 155.228 0 100 0ZM100 190.477C50.031 190.477 9.52301 149.969 9.52301 100C9.52301 50.031 50.031 9.52298 100 9.52298C149.969 9.52298 190.477 50.031 190.477 100C190.477 149.969 149.968 190.477 100 190.477ZM70.237 61.905C75.497 61.905 79.761 66.17 79.761 71.429C79.761 76.688 75.497 80.952 70.237 80.952C64.978 80.952 60.714 76.688 60.714 71.429C60.714 66.17 64.978 61.905 70.237 61.905ZM129.761 61.905C135.021 61.905 139.285 66.17 139.285 71.429C139.285 76.688 135.02 80.952 129.761 80.952C124.502 80.952 120.238 76.688 120.238 71.429C120.238 66.17 124.502 61.905 129.761 61.905ZM159.523 104.762H40.476C37.846 104.762 35.714 106.894 35.714 109.524C35.714 142.524 65.761 171.429 100 171.429C134.239 171.429 164.285 142.524 164.285 109.524C164.285 106.894 162.154 104.762 159.523 104.762ZM100 161.906C84.907 161.766 70.54 155.41 60.286 144.334C64.048 143.349 67.921 142.853 71.81 142.858C80.863 142.559 89.727 145.497 96.81 151.143C98.623 152.779 101.378 152.779 103.191 151.143C110.274 145.497 119.137 142.559 128.191 142.858C132.08 142.852 135.954 143.348 139.714 144.334C129.461 155.409 115.092 161.766 100 161.906ZM146.048 136.381C140.315 134.349 134.274 133.318 128.191 133.333C118.181 133.14 108.348 135.996 100.001 141.523C91.653 135.996 81.821 133.139 71.811 133.333C65.728 133.317 59.687 134.349 53.954 136.381C49.471 129.769 46.586 122.204 45.526 114.285H154.479C153.416 122.204 150.531 129.769 146.048 136.381Z" fill="url(#paint0_linear)"/>
<defs>
<linearGradient id="paint0_linear" x1="29.2892" y1="170.711" x2="170.711" y2="29.2898" gradientUnits="userSpaceOnUse">
<stop stop-color="#E9E9E9"/>
<stop offset="1" stop-color="#13CB46"/>
</linearGradient>
</defs>
</svg>
