<svg width="200" height="116" viewBox="0 0 200 116" fill="none" xmlns="http://www.w3.org/2000/svg">
<path d="M98.889 31.223C98.889 28.333 96.444 25.889 93.556 25.889H26.889C24 25.889 21.555 28.333 21.555 31.223C21.555 34.112 24 36.556 26.889 36.556H93.556C96.666 36.556 98.889 34.112 98.889 31.223ZM90.222 56.778C90.222 53.889 87.778 51.445 84.889 51.445H49.778C46.889 51.445 44.445 53.889 44.445 56.778C44.445 59.668 46.889 62.112 49.778 62.112H84.889C88 62.112 90.222 59.667 90.222 56.778ZM142.444 0.333008H5.33301C2.44401 0.333008 0 2.77699 0 5.66699C0 8.55599 2.44401 11 5.33301 11H142.666C168.666 11 189.555 32.111 189.555 57.889C189.555 83.667 168.444 104.779 142.666 104.779C125.11 104.779 109.11 95.001 100.888 79.445C99.999 77.668 98.221 76.556 96.221 76.556H68.888C65.999 76.556 63.555 79 63.555 81.889C63.555 84.778 65.999 87.223 68.888 87.223H92.888C103.111 104.779 121.999 115.667 142.444 115.667C174.222 115.444 200 89.667 200 57.889C200 26.112 174.222 0.333008 142.444 0.333008ZM142.444 20.333C139.333 20.333 136.667 23 136.667 26.111V59C136.667 59.444 136.667 59.667 136.667 60.111C136.667 60.555 136.889 60.777 136.889 61.221C137.112 61.444 137.112 61.888 137.334 62.111C137.556 62.333 137.777 62.777 138 63L152.667 77.667C153.778 78.778 155.333 79.444 156.667 79.444C158.223 79.444 159.556 78.778 160.667 77.667C162.889 75.444 162.889 71.667 160.667 69.444L147.556 56.333V26.111C148.222 23 145.777 20.333 142.444 20.333Z" fill="url(#paint0_linear)"/>
<defs>
<linearGradient id="paint0_linear" x1="-0.0003" y1="58.0003" x2="200" y2="58.0003" gradientUnits="userSpaceOnUse">
<stop stop-color="#E9E9E9"/>
<stop offset="1" stop-color="#FF005C"/>
</linearGradient>
</defs>
</svg>
